<svg width="114.000000" height="83.000000" viewBox="0 0 114 83" fill="none" xmlns="http://www.w3.org/2000/svg" xmlns:xlink="http://www.w3.org/1999/xlink">
	<desc>
			Created with Pixso.
	</desc>
	<defs/>
	<path id="Polygon 2" d="M37.25 4.24L4.24 37.25C1.89 39.6 1.89 43.39 4.24 45.74L37.25 78.75C39.6 81.1 43.39 81.1 45.74 78.75L78.75 45.74C81.1 43.39 81.1 39.6 78.75 37.25L45.74 4.24C43.39 1.89 39.6 1.89 37.25 4.24Z" fill="#65DAFF" fill-opacity="0" fill-rule="evenodd"/>
	<path id="Polygon 2" d="M4.24 37.25C1.89 39.6 1.89 43.39 4.24 45.74L37.25 78.75C39.6 81.1 43.39 81.1 45.74 78.75L78.75 45.74C81.1 43.39 81.1 39.6 78.75 37.25L45.74 4.24C43.39 1.89 39.6 1.89 37.25 4.24L4.24 37.25ZM5.65 38.67C4.09 40.23 4.09 42.76 5.65 44.32L38.67 77.34C40.23 78.9 42.76 78.9 44.32 77.34L77.34 44.32C78.9 42.76 78.9 40.23 77.34 38.67L44.32 5.65C42.76 4.09 40.23 4.09 38.67 5.65L5.65 38.67Z" fill="#00FFF0" fill-opacity="1.000000" fill-rule="evenodd"/>
	<path id="TOTC" d="M50.67 51.52Q52.61 52.22 54.8 52.22Q57 52.22 58.94 51.51Q59.79 51.2 60.59 50.75Q61.77 50.09 62.73 49.18Q63.9 48.08 64.74 46.64Q65.09 46.04 65.36 45.4Q66.28 43.25 66.28 40.7Q66.28 38.06 65.31 35.86Q65.06 35.3 64.76 34.78Q63.98 33.43 62.91 32.4Q61.89 31.4 60.6 30.68Q59.76 30.21 58.86 29.9Q56.95 29.21 54.8 29.21Q52.61 29.21 50.67 29.91Q49.8 30.23 48.98 30.68Q47.76 31.37 46.76 32.3Q45.62 33.37 44.79 34.78Q44.45 35.36 44.18 35.97Q43.24 38.13 43.24 40.7Q43.24 43.22 44.15 45.37Q44.43 46.02 44.79 46.64Q45.64 48.08 46.81 49.18Q47.79 50.08 48.98 50.75Q49.8 51.21 50.67 51.52ZM91.11 35.16Q89.87 37.63 89.87 40.73Q89.87 43.85 91.13 46.33Q91.21 46.49 91.3 46.65Q92.05 48 93.11 49.04Q94.08 50 95.32 50.7Q95.66 50.89 96.01 51.05Q98.33 52.15 101.16 52.15Q104.4 52.15 106.88 50.78Q107.46 50.46 108.01 50.06Q109.02 49.31 109.8 48.37Q111.2 46.66 111.82 44.32L105.8 44.32Q105.31 45.35 104.51 46.02Q104.23 46.27 103.9 46.46Q103.68 46.6 103.45 46.7Q102.39 47.2 101.1 47.2Q99.57 47.2 98.38 46.55Q97.62 46.13 97 45.44Q96.85 45.28 96.72 45.1Q95.44 43.4 95.44 40.73Q95.44 38.05 96.72 36.36Q96.85 36.19 97 36.03Q97.62 35.33 98.38 34.91Q99.57 34.27 101.1 34.27Q102.39 34.27 103.45 34.76Q103.68 34.87 103.9 35Q104.22 35.2 104.5 35.43Q105.31 36.11 105.8 37.14L111.82 37.14Q111.21 34.83 109.84 33.14Q109.05 32.16 108.01 31.39Q107.42 30.96 106.79 30.61Q104.34 29.28 101.16 29.28Q98.35 29.28 96.05 30.36Q95.68 30.53 95.32 30.74Q94.12 31.41 93.17 32.34Q92.08 33.4 91.3 34.8Q91.21 34.98 91.11 35.16ZM40.14 33.92L40.14 29.53L22.76 29.53L22.76 33.92L28.71 33.92L28.71 52L34.19 52L34.19 33.92L40.14 33.92ZM86.76 33.92L86.76 29.53L69.38 29.53L69.38 33.92L75.34 33.92L75.34 52L80.81 52L80.81 33.92L86.76 33.92ZM57.88 46.45Q56.58 47.23 54.8 47.23Q52.93 47.23 51.58 46.39Q50.97 46.01 50.46 45.46Q50.27 45.24 50.1 45.01Q48.84 43.32 48.84 40.7Q48.84 37.99 50.15 36.3Q50.3 36.11 50.46 35.93Q50.95 35.4 51.55 35.03Q52.9 34.17 54.8 34.17Q56.6 34.17 57.92 34.97Q58.57 35.36 59.1 35.95Q59.29 36.16 59.46 36.39Q60.72 38.07 60.72 40.7Q60.72 43.23 59.52 44.91Q59.33 45.19 59.1 45.44Q58.55 46.05 57.88 46.45Z" fill="#FFFFFF" fill-opacity="1.000000" fill-rule="evenodd"/>
</svg>
