<svg width="180.000000" height="180.000000" viewBox="0 0 180 180" fill="none" xmlns="http://www.w3.org/2000/svg" xmlns:xlink="http://www.w3.org/1999/xlink">
	<desc>
			Created with Pixso.
	</desc>
	<defs>
		<filter id="filter_10_956_dd" x="0.000000" y="0.000000" width="180.000000" height="180.000000" filterUnits="userSpaceOnUse" color-interpolation-filters="sRGB">
			<feFlood flood-opacity="0" result="BackgroundImageFix"/>
			<feColorMatrix in="SourceAlpha" type="matrix" values="0 0 0 0 0 0 0 0 0 0 0 0 0 0 0 0 0 0 127 0" result="hardAlpha"/>
			<feOffset dx="0" dy="10"/>
			<feGaussianBlur stdDeviation="13.3333"/>
			<feComposite in2="hardAlpha" operator="out" k2="-1" k3="1"/>
			<feColorMatrix type="matrix" values="0 0 0 0 0.21176 0 0 0 0 0.23922 0 0 0 0 0.53333 0 0 0 0.059 0"/>
			<feBlend mode="normal" in2="BackgroundImageFix" result="effect_dropShadow_1"/>
			<feBlend mode="normal" in="SourceGraphic" in2="effect_dropShadow_1" result="shape"/>
		</filter>
		<clipPath id="clip10_957">
			<rect id="users 1" width="55.000000" height="44.000000" transform="translate(63.000000 58.000000)" fill="white" fill-opacity="0"/>
		</clipPath>
	</defs>
	<g filter="url(#filter_10_956_dd)">
		<circle id="Ellipse 7" cx="90.000000" cy="80.000000" r="50.000000" fill="#29B9E7" fill-opacity="1.000000"/>
	</g>
	<rect id="users 1" width="55.000000" height="44.000000" transform="translate(63.000000 58.000000)" fill="#FFFFFF" fill-opacity="0"/>
	<g clip-path="url(#clip10_957)">
		<path id="Vector" d="M71.25 77.25C74.28 77.25 76.75 74.78 76.75 71.75C76.75 68.71 74.28 66.25 71.25 66.25C68.21 66.25 65.75 68.71 65.75 71.75C65.75 74.78 68.21 77.25 71.25 77.25ZM109.75 77.25C112.78 77.25 115.25 74.78 115.25 71.75C115.25 68.71 112.78 66.25 109.75 66.25C106.71 66.25 104.25 68.71 104.25 71.75C104.25 74.78 106.71 77.25 109.75 77.25ZM112.5 80L107 80C105.48 80 104.12 80.61 103.12 81.59C106.58 83.49 109.04 86.92 109.57 91L115.25 91C116.77 91 118 89.77 118 88.25L118 85.5C118 82.46 115.53 80 112.5 80ZM90.5 80C95.82 80 100.12 75.69 100.12 70.37C100.12 65.05 95.82 60.75 90.5 60.75C85.17 60.75 80.87 65.05 80.87 70.37C80.87 75.69 85.17 80 90.5 80ZM97.09 82.75L96.38 82.75C94.59 83.6 92.61 84.12 90.5 84.12C88.38 84.12 86.41 83.6 84.61 82.75L83.9 82.75C78.43 82.75 74 87.18 74 92.65L74 95.12C74 97.4 75.84 99.25 78.12 99.25L102.87 99.25C105.15 99.25 107 97.4 107 95.12L107 92.65C107 87.18 102.56 82.75 97.09 82.75ZM77.87 81.59C76.87 80.61 75.51 80 74 80L68.5 80C65.46 80 63 82.46 63 85.5L63 88.25C63 89.77 64.22 91 65.75 91L71.41 91C71.95 86.92 74.41 83.49 77.87 81.59Z" fill="#FFFFFF" fill-opacity="1.000000" fill-rule="nonzero"/>
	</g>
</svg>
