<svg width="32.000000" height="32.000000" viewBox="0 0 32 32" fill="none" xmlns="http://www.w3.org/2000/svg" xmlns:xlink="http://www.w3.org/1999/xlink">
	<desc>
			Created with Pixso.
	</desc>
	<defs/>
	<path d="M0 16C0 24.83 7.16 32 16 32C24.83 32 32 24.83 32 16C32 7.16 24.83 0 16 0C7.16 0 0 7.16 0 16Z" fill="#696984" fill-opacity="1.000000" fill-rule="evenodd"/>
	<path d="M21.59 10.3C20.09 8.8 18.09 8 16 8C11.59 8 8 11.6 8 16C8 17.4 8.4 18.79 9.09 20L8 24L12.19 22.9C13.4 23.5 14.69 23.9 16 23.9C20.4 23.9 24 20.29 24 15.9C24 13.8 23.09 11.8 21.59 10.3ZM16 22.6C14.8 22.6 13.59 22.3 12.59 21.7L12.4 21.6L9.9 22.3L10.59 19.9L10.4 19.6C9.69 18.5 9.4 17.29 9.4 16.1C9.4 12.5 12.4 9.5 16 9.5C17.8 9.5 19.4 10.2 20.69 11.4C22 12.7 22.59 14.3 22.59 16.1C22.59 19.6 19.69 22.6 16 22.6ZM19.59 17.6C19.4 17.5 18.4 17 18.19 17C18 16.9 17.9 16.9 17.8 17.1C17.69 17.29 17.3 17.7 17.19 17.9C17.09 18 17 18 16.8 18C16.59 17.9 16 17.7 15.19 17C14.59 16.5 14.19 15.8 14.09 15.6C14 15.4 14.09 15.3 14.19 15.2C14.3 15.1 14.4 15 14.5 14.9C14.59 14.8 14.59 14.7 14.69 14.6C14.8 14.5 14.69 14.4 14.69 14.3C14.69 14.2 14.3 13.2 14.09 12.8C14 12.5 13.8 12.5 13.69 12.5C13.59 12.5 13.5 12.5 13.3 12.5C13.19 12.5 13 12.5 12.8 12.7C12.59 12.9 12.09 13.4 12.09 14.4C12.09 15.4 12.8 16.29 12.9 16.5C13 16.6 14.3 18.7 16.3 19.5C18 20.2 18.3 20 18.69 20C19.09 20 19.9 19.5 20 19.1C20.19 18.6 20.19 18.2 20.09 18.2C20 17.7 19.8 17.7 19.59 17.6Z" fill="#FFFFFF" fill-opacity="1.000000" fill-rule="evenodd"/>
</svg>
