<svg width="30.000000" height="26.000000" viewBox="0 0 30 26" fill="none" xmlns="http://www.w3.org/2000/svg" xmlns:xlink="http://www.w3.org/1999/xlink">
	<desc>
			Created with Pixso.
	</desc>
	<defs>
		<clipPath id="clip10_573">
			<rect id="users 2" width="30.000000" height="26.000000" fill="white" fill-opacity="0"/>
		</clipPath>
	</defs>
	<rect id="users 2" width="30.000000" height="26.000000" fill="#FFFFFF" fill-opacity="0"/>
	<g clip-path="url(#clip10_573)">
		<path id="Vector" d="M4.5 11.37C6.15 11.37 7.5 9.91 7.5 8.12C7.5 6.33 6.15 4.87 4.5 4.87C2.84 4.87 1.5 6.33 1.5 8.12C1.5 9.91 2.84 11.37 4.5 11.37ZM25.5 11.37C27.15 11.37 28.5 9.91 28.5 8.12C28.5 6.33 27.15 4.87 25.5 4.87C23.84 4.87 22.5 6.33 22.5 8.12C22.5 9.91 23.84 11.37 25.5 11.37ZM27 13L24 13C23.17 13 22.42 13.36 21.88 13.94C23.77 15.06 25.11 17.09 25.4 19.5L28.5 19.5C29.33 19.5 30 18.77 30 17.87L30 16.25C30 14.45 28.65 13 27 13ZM15 13C17.9 13 20.25 10.45 20.25 7.31C20.25 4.16 17.9 1.62 15 1.62C12.09 1.62 9.75 4.16 9.75 7.31C9.75 10.45 12.09 13 15 13ZM18.59 14.62L18.21 14.62C17.23 15.13 16.15 15.43 15 15.43C13.84 15.43 12.76 15.13 11.78 14.62L11.4 14.62C8.41 14.62 6 17.24 6 20.47L6 21.93C6 23.28 7 24.37 8.25 24.37L21.75 24.37C22.99 24.37 24 23.28 24 21.93L24 20.47C24 17.24 21.58 14.62 18.59 14.62ZM8.11 13.94C7.57 13.36 6.82 13 6 13L3 13C1.34 13 0 14.45 0 16.25L0 17.87C0 18.77 0.66 19.5 1.5 19.5L4.58 19.5C4.88 17.09 6.22 15.06 8.11 13.94Z" fill="#2F327D" fill-opacity="1.000000" fill-rule="nonzero"/>
	</g>
</svg>
